
<svg xmlns="http://www.w3.org/2000/svg" xmlns:xlink="http://www.w3.org/1999/xlink" version="1.1" width="150" height="150" viewBox="0 0 4658.714669819939 4644.401075495829">

<g transform="scale(82.93573349099695) translate(10, 10)">
<defs id="SvgjsDefs3885"></defs><g id="SvgjsG3886" featureKey="nameLeftFeature-0" transform="matrix(2.284263926216591,0,0,2.284263926216591,3.0000446580986857,-9.685278524331824)" fill="#86C232"><path d="M5.86 4.5 l-0.000019531 -0.26 l-5.86 0 l0 0.64 l3.38 0 l0 15.12 l0.7 0 l0 -15.12 l1.8 0 c-0.02666 -0.21334 -0.03332 -0.34 -0.01998 -0.38 z M6.38 4.24 l0 0.64 l1.1 0 l0 -0.64 l-1.1 0 z"></path></g><g id="SvgjsG3887" featureKey="nameRightFeature-0" transform="matrix(2.284263511538277,0,0,2.284263511538277,20.000047108839453,-9.68527894453931)" fill="#FFFFFF"><path d="M4.4 15.219999999999999 c0.85334 -0.48 1.5067 -1.1567 1.96 -2.03 s0.68 -1.8633 0.68 -2.97 l0 -0.28 c0 -1.64 -0.49 -3 -1.47 -4.08 s-2.3766 -1.62 -4.19 -1.62 l-1.38 0 l0 6.34 c0.22666 0.01334 0.45332 0.02 0.67998 0.02 l0 -5.72 l0.66 0 c1.64 0 2.88 0.47666 3.72 1.43 s1.26 2.1766 1.26 3.67 l0 0.22 c0 1.48 -0.42 2.6934 -1.26 3.64 s-2.08 1.42 -3.72 1.42 l-0.66 0 l0 0 l-0.68 0 l0 0.64 c0.4 0.01334 0.66666 0.02 0.8 0.02 l0.58 0 c0.92 0 1.7267 -0.14 2.42 -0.42 l2.48 4.5 l0.8 0 z"></path></g>
</g>
</svg>
	